<?xml version="1.0" encoding="utf-8"?>
<!-- Generator: Adobe Illustrator 24.2.1, SVG Export Plug-In . SVG Version: 6.00 Build 0)  -->
<svg version="1.1" id="Layer_1" xmlns="http://www.w3.org/2000/svg" xmlns:xlink="http://www.w3.org/1999/xlink" x="0px" y="0px"
	 viewBox="0 0 32 32" style="enable-background:new 0 0 32 32;" xml:space="preserve">
<style type="text/css">
	.st0{fill:#0000FF;}
</style>
<g>
	<path class="st0" d="M22.5,0h-13c-5,0-9.1,4.1-9.1,9.1v13.9c0,5,4.1,9.1,9.1,9.1h13c5,0,9.1-4.1,9.1-9.1V9.1
		C31.6,4.1,27.5,0,22.5,0z M29.2,22.9c0,1.8-0.7,3.4-2,4.7c-1.3,1.3-2.9,2-4.7,2h-13c-1.8,0-3.4-0.7-4.7-2c-1.3-1.3-2-2.9-2-4.7V9.1
		c0-1.8,0.7-3.4,2-4.7s2.9-2,4.7-2h13c1.8,0,3.4,0.7,4.7,2c1.3,1.3,2,2.9,2,4.7V22.9z"/>
	<path class="st0" d="M16,7.3c-4.7,0-8.6,3.8-8.6,8.6s3.8,8.6,8.6,8.6s8.6-3.8,8.6-8.6S20.8,7.3,16,7.3z M16,21.5
		c-3.1,0-5.6-2.5-5.6-5.6c0-3.1,2.5-5.6,5.6-5.6s5.6,2.5,5.6,5.6C21.6,19,19.1,21.5,16,21.5z"/>
	<circle class="st0" cx="24.8" cy="7.2" r="2"/>
</g>
</svg>
