<svg xmlns="http://www.w3.org/2000/svg" viewBox="0 0 50 50"><path d="M25 0C11.2 0 0 11.2 0 25s11.2 25 25 25 25-11.2 25-25S38.8 0 25 0zm12.2 18.8v.8c0 8.3-6.3 17.9-17.9 17.9-3.5 0-6.9-1.1-9.7-2.9.5.1 1.1.1 1.5.1 3 0 5.7-1 7.9-2.7-2.7-.1-5.1-1.9-5.8-4.4.4.1.8.1 1.1.1.6 0 1.1-.1 1.6-.2-2.9-.6-5.1-3.1-5.1-6.1v-.1c.9.5 1.8.8 2.9.8-1.6-1.2-2.7-3.1-2.7-5.3 0-1.1.3-2.2.9-3.2 3.2 3.8 7.8 6.3 13 6.6-.1-.5-.2-1-.2-1.4 0-3.5 2.9-6.3 6.3-6.3 1.7 0 3.4.8 4.5 2 1.4-.3 2.8-.8 4-1.5-.5 1.4-1.4 2.7-2.8 3.4 1.3-.1 2.5-.5 3.6-1-.8 1.3-1.8 2.5-3.1 3.4z" fill="#0d5259"/></svg>