<svg version="1.1" id="Layer_1" xmlns="http://www.w3.org/2000/svg" x="0" y="0" viewBox="0 0 50.5 50.5" xml:space="preserve"><style>.st0{fill:#0d5259}</style><path class="st0" d="M30.9 13.4H19.6c-1.6 0-2.9.6-4.1 1.7s-1.7 2.5-1.7 4.1v11.9c0 1.6.6 2.9 1.7 4.1s2.5 1.7 4.1 1.7h11.3c1.6 0 2.9-.6 4.1-1.7s1.7-2.5 1.7-4.1V19.2c0-1.6-.6-2.9-1.7-4.1s-2.6-1.7-4.1-1.7zm-5.6 19.2c-4.2 0-7.4-3.3-7.4-7.4 0-4.2 3.4-7.4 7.4-7.4 4.2 0 7.4 3.3 7.4 7.4 0 4.1-3.3 7.4-7.4 7.4zm7.6-13.3c-1 0-1.7-.8-1.7-1.7s.8-1.7 1.7-1.7c1 0 1.7.8 1.7 1.7s-.8 1.7-1.7 1.7z"/><circle class="st0" cx="25.3" cy="25.1" r="4.8"/><path class="st0" d="M25.3.3C11.5.3.3 11.5.3 25.3s11.2 25 25 25 25-11.2 25-25-11.2-25-25-25zm13.5 31c0 4.3-3.5 7.9-7.9 7.9H19.6c-4.3 0-7.9-3.5-7.9-7.9v-12c0-4.3 3.5-7.9 7.9-7.9h11.3c4.3 0 7.9 3.5 7.9 7.9v12z"/></svg>